<?xml version="1.0" standalone="no"?>
<!DOCTYPE svg PUBLIC "-//W3C//DTD SVG 20010904//EN"
 "http://www.w3.org/TR/2001/REC-SVG-20010904/DTD/svg10.dtd">
<svg version="1.0" xmlns="http://www.w3.org/2000/svg"
 width="1024.000000pt" height="1024.000000pt" viewBox="0 0 1024.000000 1024.000000"
 preserveAspectRatio="xMidYMid meet">
<metadata>
Created by potrace 1.14, written by Peter Selinger 2001-2017
</metadata>
<g transform="translate(0.000000,1024.000000) scale(0.100000,-0.100000)"
fill="#000000" stroke="none">
<path d="M0 5120 l0 -5120 5120 0 5120 0 0 5120 0 5120 -5120 0 -5120 0 0
-5120z m5301 1438 c120 -44 215 -113 282 -206 48 -66 939 -1714 966 -1785 11
-32 21 -67 21 -78 0 -26 -15 -22 -140 42 -427 215 -716 596 -825 1085 -34 155
-78 249 -149 319 -146 142 -349 172 -528 78 -131 -68 -211 -187 -249 -368 -66
-318 -202 -582 -412 -801 -168 -176 -406 -332 -594 -388 -25 -8 -24 -2 8 100
23 73 923 1736 980 1812 41 54 132 128 202 164 123 62 308 73 438 26z m-56
-746 c85 -43 113 -92 150 -256 102 -455 352 -839 716 -1098 173 -123 420 -237
606 -279 139 -31 407 -38 556 -14 113 17 148 15 207 -15 119 -61 167 -227 102
-351 -52 -100 -120 -126 -377 -150 -780 -70 -1583 363 -2014 1086 l-63 106
-63 -106 c-199 -334 -477 -610 -814 -807 -140 -82 -209 -112 -391 -170 -354
-113 -650 -141 -976 -93 -101 16 -142 32 -187 74 -52 47 -72 98 -72 181 0 65
4 82 30 129 57 103 151 144 273 120 103 -21 453 -19 565 4 522 105 986 471
1222 961 69 145 99 230 141 406 38 156 63 211 115 249 73 54 195 64 274 23z
m-17 -1487 c159 -199 413 -426 626 -559 l89 -56 -803 0 -802 0 133 89 c74 49
177 125 230 169 117 99 293 282 374 390 33 44 63 77 66 74 4 -4 43 -52 87
-107z"/>
</g>
</svg>
